<?xml version="1.0" encoding="utf-8"?>
<!-- Generator: Adobe Illustrator 18.0.0, SVG Export Plug-In . SVG Version: 6.00 Build 0)  -->
<!DOCTYPE svg PUBLIC "-//W3C//DTD SVG 1.1//EN" "http://www.w3.org/Graphics/SVG/1.1/DTD/svg11.dtd">
<svg version="1.1" id="Layer_1" xmlns="http://www.w3.org/2000/svg" xmlns:xlink="http://www.w3.org/1999/xlink" x="0px" y="0px"
	 viewBox="0 137 960.5 285.9" enable-background="new 0 137 960.5 285.9" xml:space="preserve">
<path fill="#FBD42C" d="M0,137V423h196.7V137H0z M168.6,394.4H28.6V165.6h140.1V394.4z"/>
<path d="M314,236.9L314,236.9c-16-25.7-32-48-48-70.8h-12.1v99.3h13.6v-71.7l0,0c16,25.7,31.5,48.5,47.5,71.2h12.1v-99.3h-13.6v71.2
	H314z M411.4,265.5l-31.5-99.8h-14.1L332,265h14.5l8.7-27.1h29.6l7.8,27.1h18.9V265.5z M359.6,225.7c3.9-13.1,7.8-25.2,11.1-40.7
	h0.5c3.9,15.5,7.3,27.6,11.1,40.7H359.6z M427.4,265.5h17v-86.3h25.7v-13.6h-68.8v13.6h25.7L427.4,265.5L427.4,265.5z M491.9,165.6
	h-16.5V265h16.5V165.6z M544.2,266.9c25.7,0,41.7-23.3,41.7-52.8c0-27.6-17.4-49.9-41.7-49.9c-24.2,0-41.7,22.3-41.7,49.9
	C502.5,243.7,518.5,266.9,544.2,266.9z M544.2,178.2c16.5,0,23.7,17.4,23.7,35.9c0,18.9-6.3,38.8-23.7,38.8
	c-17.4,0-23.7-19.4-23.7-38.8C520.5,195.7,527.2,178.2,544.2,178.2z M609.1,193.7L609.1,193.7c16,25.7,32,48.5,48,71.2h12.1v-99.3
	h-13.6v70.8h-0.5c-15.5-25.7-31.5-48-47.5-70.8h-11.6V265h13.6C609.1,265.5,609.1,193.7,609.1,193.7z M696.9,238.3h29.6l7.8,27.1
	h18.9l-31-99.8H708L674.1,265h14.5L696.9,238.3z M712.9,185.5L712.9,185.5c4.4,15.5,7.8,27.6,11.1,40.7h-22.8
	C705.1,212.6,709.5,200.5,712.9,185.5z M807.8,251.9h-33.4v-86.3h-16.5V265h49.9L807.8,251.9L807.8,251.9z M300.5,378.9
	c-3.4,1.9-7.3,2.4-11.6,2.4c-14.5,0-28.6-14.1-28.6-37.3c0-22.8,12.1-36.8,30-36.8c6.3,0,13.6,2.4,17.9,5.3l5.3-11.6
	c-5.8-4.4-14.5-7.8-23.7-7.8c-29.6,0-47.5,23.7-47.5,50.9c0,29.1,18.4,51.9,47,51.9c9.7,0,18.9-2.4,28.1-6.3v-41.2h-17
	C300.5,348.3,300.5,378.9,300.5,378.9z M349.4,348.3H377v-13.6h-27.6v-27.1h28.1v-13.6h-45.1v99.8h49.9v-13.6h-33V348.3z
	 M429.4,292.6c-24.2,0-41.7,22.3-41.7,49.9c0,29.6,16,52.8,41.7,52.8s41.7-23.3,41.7-52.8C471,314.9,453.6,292.6,429.4,292.6z
	 M429.4,381.3c-17.4,0-23.7-19.4-23.7-38.8c0-18.4,6.8-35.9,23.7-35.9c16.5,0,23.7,17.4,23.7,35.9
	C453.1,361.9,446.8,381.3,429.4,381.3z M535,378.9c-3.4,1.9-7.3,2.4-11.6,2.4c-14.5,0-28.6-14.1-28.6-37.3c0-22.8,12.1-36.8,30-36.8
	c6.3,0,13.6,2.4,17.9,5.3l5.3-11.6c-5.8-4.4-14.5-7.8-23.7-7.8c-29.6,0-47.5,23.7-47.5,50.9c0,29.1,18.4,51.9,47,51.9
	c9.7,0,18.9-2.4,28.1-6.3v-41.2h-17C535,348.3,535,378.9,535,378.9z M624.2,323.1c0-19.4-11.6-28.6-30.5-28.6h-26.2v99.3h17v-37.3
	h7.8l16,37.3h19.4l-19.9-41.2C617.9,346.9,624.2,335.2,624.2,323.1z M591.2,343.5c-1.5,0-5.8,0.5-6.8,0.5v-36.3h7.3
	c10.2,0,15.5,5.8,15.5,16C607.2,337.2,599,343.5,591.2,343.5z M661,294.5l-33.9,99.3h14.5l8.7-27.1h29.6l7.8,27.1h18.9l-31.5-99.3
	H661z M654.7,354.6c3.9-13.1,7.8-25.2,11.1-40.7h0.5c3.9,15.5,7.3,27.6,11.1,40.7H654.7z M829.6,332.8h-34.9v-38.3h-16.5v99.3h16.5
	v-48h34.9v48h17V295h-17V332.8z M862.6,393.9h16.5v-99.3h-16.5V393.9z M938.2,381.3c-16.5,0-30-14.1-30-37.3
	c0-22.8,12.6-36.8,29.6-36.8c6.3,0,13.1,2.9,17.4,5.3l5.3-12.1c-5.8-3.9-14.1-7.8-22.8-7.8c-29.6,0-47.5,23.7-47.5,50.9
	c0,29.1,18.4,51.9,47,51.9c8.2,0,17-3.4,22.3-6.8l-4.8-12.6C950.3,379.3,944.5,381.3,938.2,381.3z M738.1,294.5h-26.2v99.3h17v-37.3
	h7.8c19.9,0,32.5-16.5,32.5-33.4C768.1,303.7,756.5,294.5,738.1,294.5z M735.6,343.5c-1.5,0-5.8,0.5-6.8,0.5v-36.3h7.8
	c9.7,0,15.5,5.8,15.5,16C751.6,337.2,743.4,343.5,735.6,343.5z"/>
</svg>
