<?xml version="1.0" encoding="utf-8"?><!DOCTYPE svg PUBLIC "-//W3C//DTD SVG 1.1//EN" "http://www.w3.org/Graphics/SVG/1.1/DTD/svg11.dtd"><svg xmlns="http://www.w3.org/2000/svg" xmlns:xlink="http://www.w3.org/1999/xlink"><symbol viewBox="0 0 8.5 14" id="arrow" xmlns="http://www.w3.org/2000/svg"><path d="M8.5 7l-7-7L0 1.5 5.5 7 0 12.5 1.5 14l7-7z"/></symbol><symbol viewBox="5 5 14 14" id="close" xmlns="http://www.w3.org/2000/svg"><path d="M19 6.4L17.6 5 12 10.6 6.4 5 5 6.4l5.6 5.6L5 17.6 6.4 19l5.6-5.6 5.6 5.6 1.4-1.4-5.6-5.6L19 6.4z"/></symbol><symbol viewBox="0 0 264 512" id="facebook" xmlns="http://www.w3.org/2000/svg"><path d="M76.7 512V283H0v-91h76.7v-71.7C76.7 42.4 124.3 0 193.8 0c33.3 0 61.9 2.5 70.2 3.6V85h-48.2c-37.8 0-45.1 18-45.1 44.3V192H256l-11.7 91h-73.6v229"/></symbol><symbol viewBox="0 0 448 512" id="instagram" xmlns="http://www.w3.org/2000/svg"><path d="M224.1 141c-63.6 0-114.9 51.3-114.9 114.9s51.3 114.9 114.9 114.9S339 319.5 339 255.9 287.7 141 224.1 141zm0 189.6c-41.1 0-74.7-33.5-74.7-74.7s33.5-74.7 74.7-74.7 74.7 33.5 74.7 74.7-33.6 74.7-74.7 74.7zm146.4-194.3c0 14.9-12 26.8-26.8 26.8-14.9 0-26.8-12-26.8-26.8s12-26.8 26.8-26.8 26.8 12 26.8 26.8zm76.1 27.2c-1.7-35.9-9.9-67.7-36.2-93.9-26.2-26.2-58-34.4-93.9-36.2-37-2.1-147.9-2.1-184.9 0-35.8 1.7-67.6 9.9-93.9 36.1s-34.4 58-36.2 93.9c-2.1 37-2.1 147.9 0 184.9 1.7 35.9 9.9 67.7 36.2 93.9s58 34.4 93.9 36.2c37 2.1 147.9 2.1 184.9 0 35.9-1.7 67.7-9.9 93.9-36.2 26.2-26.2 34.4-58 36.2-93.9 2.1-37 2.1-147.8 0-184.8zM398.8 388c-7.8 19.6-22.9 34.7-42.6 42.6-29.5 11.7-99.5 9-132.1 9s-102.7 2.6-132.1-9c-19.6-7.8-34.7-22.9-42.6-42.6-11.7-29.5-9-99.5-9-132.1s-2.6-102.7 9-132.1c7.8-19.6 22.9-34.7 42.6-42.6 29.5-11.7 99.5-9 132.1-9s102.7-2.6 132.1 9c19.6 7.8 34.7 22.9 42.6 42.6 11.7 29.5 9 99.5 9 132.1s2.7 102.7-9 132.1z"/></symbol><symbol viewBox="0 137 960.5 285.9" id="logo" xmlns="http://www.w3.org/2000/svg"><path fill="#FBD42C" d="M0 137v286h196.7V137H0zm168.6 257.4h-140V165.6h140.1v228.8z"/><path d="M314 236.9c-16-25.7-32-48-48-70.8h-12.1v99.3h13.6v-71.7c16 25.7 31.5 48.5 47.5 71.2h12.1v-99.3h-13.6v71.2h.5zm97.4 28.6l-31.5-99.8h-14.1L332 265h14.5l8.7-27.1h29.6l7.8 27.1h18.9v.5zm-51.8-39.8c3.9-13.1 7.8-25.2 11.1-40.7h.5c3.9 15.5 7.3 27.6 11.1 40.7h-22.7zm67.8 39.8h17v-86.3h25.7v-13.6h-68.8v13.6H427l.4 86.3zm64.5-99.9h-16.5V265h16.5v-99.4zm52.3 101.3c25.7 0 41.7-23.3 41.7-52.8 0-27.6-17.4-49.9-41.7-49.9-24.2 0-41.7 22.3-41.7 49.9 0 29.6 16 52.8 41.7 52.8zm0-88.7c16.5 0 23.7 17.4 23.7 35.9 0 18.9-6.3 38.8-23.7 38.8s-23.7-19.4-23.7-38.8c0-18.4 6.7-35.9 23.7-35.9zm64.9 15.5c16 25.7 32 48.5 48 71.2h12.1v-99.3h-13.6v70.8h-.5c-15.5-25.7-31.5-48-47.5-70.8H596V265h13.6c-.5.5-.5-71.3-.5-71.3zm87.8 44.6h29.6l7.8 27.1h18.9l-31-99.8H708L674.1 265h14.5l8.3-26.7zm16-52.8c4.4 15.5 7.8 27.6 11.1 40.7h-22.8c3.9-13.6 8.3-25.7 11.7-40.7zm94.9 66.4h-33.4v-86.3h-16.5V265h49.9v-13.1zm-507.3 127c-3.4 1.9-7.3 2.4-11.6 2.4-14.5 0-28.6-14.1-28.6-37.3 0-22.8 12.1-36.8 30-36.8 6.3 0 13.6 2.4 17.9 5.3l5.3-11.6c-5.8-4.4-14.5-7.8-23.7-7.8-29.6 0-47.5 23.7-47.5 50.9 0 29.1 18.4 51.9 47 51.9 9.7 0 18.9-2.4 28.1-6.3v-41.2h-17c.1-.1.1 30.5.1 30.5zm48.9-30.6H377v-13.6h-27.6v-27.1h28.1V294h-45.1v99.8h49.9v-13.6h-33v-31.9zm80-55.7c-24.2 0-41.7 22.3-41.7 49.9 0 29.6 16 52.8 41.7 52.8s41.7-23.3 41.7-52.8c-.1-27.6-17.5-49.9-41.7-49.9zm0 88.7c-17.4 0-23.7-19.4-23.7-38.8 0-18.4 6.8-35.9 23.7-35.9 16.5 0 23.7 17.4 23.7 35.9 0 19.4-6.3 38.8-23.7 38.8zm105.6-2.4c-3.4 1.9-7.3 2.4-11.6 2.4-14.5 0-28.6-14.1-28.6-37.3 0-22.8 12.1-36.8 30-36.8 6.3 0 13.6 2.4 17.9 5.3l5.3-11.6c-5.8-4.4-14.5-7.8-23.7-7.8-29.6 0-47.5 23.7-47.5 50.9 0 29.1 18.4 51.9 47 51.9 9.7 0 18.9-2.4 28.1-6.3v-41.2h-17c.1-.1.1 30.5.1 30.5zm89.2-55.8c0-19.4-11.6-28.6-30.5-28.6h-26.2v99.3h17v-37.3h7.8l16 37.3h19.4l-19.9-41.2c10.1-5.7 16.4-17.4 16.4-29.5zm-33 20.4c-1.5 0-5.8.5-6.8.5v-36.3h7.3c10.2 0 15.5 5.8 15.5 16 0 13.5-8.2 19.8-16 19.8zm69.8-49l-33.9 99.3h14.5l8.7-27.1h29.6l7.8 27.1h18.9l-31.5-99.3H661zm-6.3 60.1c3.9-13.1 7.8-25.2 11.1-40.7h.5c3.9 15.5 7.3 27.6 11.1 40.7h-22.7zm174.9-21.8h-34.9v-38.3h-16.5v99.3h16.5v-48h34.9v48h17V295h-17v37.8zm33 61.1h16.5v-99.3h-16.5v99.3zm75.6-12.6c-16.5 0-30-14.1-30-37.3 0-22.8 12.6-36.8 29.6-36.8 6.3 0 13.1 2.9 17.4 5.3l5.3-12.1c-5.8-3.9-14.1-7.8-22.8-7.8-29.6 0-47.5 23.7-47.5 50.9 0 29.1 18.4 51.9 47 51.9 8.2 0 17-3.4 22.3-6.8l-4.8-12.6c-4.4 3.3-10.2 5.3-16.5 5.3zm-200.1-86.8h-26.2v99.3h17v-37.3h7.8c19.9 0 32.5-16.5 32.5-33.4-1.1-19.4-12.7-28.6-31.1-28.6zm-2.5 49c-1.5 0-5.8.5-6.8.5v-36.3h7.8c9.7 0 15.5 5.8 15.5 16-.5 13.5-8.7 19.8-16.5 19.8z"/></symbol><symbol viewBox="0 0 23.9 16.8" id="menu" xmlns="http://www.w3.org/2000/svg"><path d="M0 0h23.9v4H0zM0 12.9h23.9v4H0z"/></symbol><symbol viewBox="0 0 512 512" id="twitter" xmlns="http://www.w3.org/2000/svg"><path d="M459.37 151.716c.325 4.548.325 9.097.325 13.645 0 138.72-105.583 298.558-298.558 298.558-59.452 0-114.68-17.219-161.137-47.106 8.447.974 16.568 1.299 25.34 1.299 49.055 0 94.213-16.568 130.274-44.832-46.132-.975-84.792-31.188-98.112-72.772 6.498.974 12.995 1.624 19.818 1.624 9.421 0 18.843-1.3 27.614-3.573-48.081-9.747-84.143-51.98-84.143-102.985v-1.299c13.969 7.797 30.214 12.67 47.431 13.319-28.264-18.843-46.781-51.005-46.781-87.391 0-19.492 5.197-37.36 14.294-52.954 51.655 63.675 129.3 105.258 216.365 109.807-1.624-7.797-2.599-15.918-2.599-24.04 0-57.828 46.782-104.934 104.934-104.934 30.213 0 57.502 12.67 76.67 33.137 23.715-4.548 46.456-13.32 66.599-25.34-7.798 24.366-24.366 44.833-46.132 57.827 21.117-2.273 41.584-8.122 60.426-16.243-14.292 20.791-32.161 39.308-52.628 54.253z"/></symbol><symbol viewBox="0 2.7 410.6 405.1" id="zoom" xmlns="http://www.w3.org/2000/svg"><path d="M410.6 371.4l-50-50-39.9-39.9c20.5-28.8 32.7-64 32.7-102C353.4 82 274.1 2.7 176.7 2.7 79.3 2.7 0 82 0 179.4c0 97.4 79.3 176.7 176.7 176.7 40.7 0 78.1-14 108-37.2l68.5 68.5c.8.8 1.8 1.5 2.7 2.2l18.2 18.2 36.5-36.4zm-233.9-56.9c-74.5 0-135.1-60.6-135.1-135.1S102.2 44.3 176.7 44.3s135.1 60.6 135.1 135.1c0 31-10.6 59.5-28.2 82.3-5.8 7.5-12.4 14.5-19.6 20.7-23.6 20-54.1 32.1-87.3 32.1z"/></symbol></svg>